
Revealed GOLDEN TEMPLE documentary on Discovery channel With English Narration

It took Delhi-based film-maker Rajendra Kondapalli almost a year to make a 50-minute documentary on the Golden Temple, perhaps the most sacred place for the Sikh community in India. The temple is visited by lakhs of people of various religious denominations every year.

Format : Flash Video
File size : 273 MiB
Duration : 48mn 0s
Overall bit rate : 795 Kbps
Language : English
Subtitles : English (for Hindi Parts)


Video
Format : AVC
Format/Info : Advanced Video Codec
Format profile : Main@L3.0
Format settings, CABAC : Yes
Format settings, ReFrames : 3 frames
Format settings, GOP : M=1, N=25
Codec ID : 7
Duration : 48mn 0s
Bit rate : 659 Kbps
Width : 800 pixels
Height : 480 pixels
Display aspect ratio : 1.667
Frame rate mode : Constant
Frame rate : 25.000 fps
Color space : YUV
Chroma subsampling : 4:2:0
Bit depth : 8 bits
Scan type : Progressive
Bits/(Pixel*Frame) : 0.069
Stream size : 226 MiB (83%)

Audio
Format : AAC
Format/Info : Advanced Audio Codec
Format profile : LC
Codec ID : 10
Duration : 48mn 0s
Bit rate : 128 Kbps
Channel(s) : 2 channels
Channel positions : Front: L R
Sampling rate : 44.1 KHz
Compression mode : Lossy
Stream size : 44.1 MiB (16%)
 
http://img198.imageshack.us/img198/3418/60791664.jpg 
http://img341.imageshack.us/img341/4518/70612730.jpg 
http://img542.imageshack.us/img542/2015/36905934.jpg 
http://img51.imageshack.us/img51/6592/43336341.jpg 
http://img848.imageshack.us/img848/8316/30957834.jpg
